<svg id="visual" viewBox="0 0 960 540" width="960" height="540" xmlns="http://www.w3.org/2000/svg" xmlns:xlink="http://www.w3.org/1999/xlink" version="1.1"><g stroke-width="16" stroke-linejoin="bevel"><path d="M493 250.5L532.3 280.5L532.3 255.5Z" fill="#af546c" stroke="#090808"></path><path d="M493 250.5L477 297.5L532.3 280.5Z" fill="#cc6467" stroke="#090808"></path><path d="M532.3 280.5L577.7 256.5L532.3 255.5Z" fill="#af546c" stroke="#090808"></path><path d="M532.3 255.5L497 189.4L493 250.5Z" fill="#8e486c" stroke="#090808"></path><path d="M493 250.5L433.7 281.5L477 297.5Z" fill="#f3b14e" stroke="#090808"></path><path d="M538.3 187.4L497 189.4L532.3 255.5Z" fill="#131e32" stroke="#090808"></path><path d="M493 250.5L414.7 254.5L433.7 281.5Z" fill="#af546c" stroke="#090808"></path><path d="M411.7 332.6L486 346.6L477 297.5Z" fill="#2b2a47" stroke="#090808"></path><path d="M477 297.5L486 346.6L532.3 280.5Z" fill="#cc6467" stroke="#090808"></path><path d="M532.3 280.5L597.7 280.5L577.7 256.5Z" fill="#6b3f66" stroke="#090808"></path><path d="M577.7 256.5L538.3 187.4L532.3 255.5Z" fill="#cc6467" stroke="#090808"></path><path d="M596.7 330.6L597.7 280.5L532.3 280.5Z" fill="#493559" stroke="#090808"></path><path d="M586.7 164.3L548.3 158.3L538.3 187.4Z" fill="#cc6467" stroke="#090808"></path><path d="M486 346.6L518.3 356.6L532.3 280.5Z" fill="#af546c" stroke="#090808"></path><path d="M425.7 179.4L414.7 254.5L493 250.5Z" fill="#2b2a47" stroke="#090808"></path><path d="M518.3 356.6L596.7 330.6L532.3 280.5Z" fill="#cc6467" stroke="#090808"></path><path d="M467 395.7L532.3 375.7L518.3 356.6Z" fill="#6b3f66" stroke="#090808"></path><path d="M518.3 356.6L532.3 375.7L596.7 330.6Z" fill="#6b3f66" stroke="#090808"></path><path d="M601.7 191.4L538.3 187.4L577.7 256.5Z" fill="#f3b14e" stroke="#090808"></path><path d="M538.3 187.4L548.3 158.3L497 189.4Z" fill="#2b2a47" stroke="#090808"></path><path d="M373.3 287.5L411.7 332.6L433.7 281.5Z" fill="#cc6467" stroke="#090808"></path><path d="M433.7 281.5L411.7 332.6L477 297.5Z" fill="#cc6467" stroke="#090808"></path><path d="M486 346.6L467 395.7L518.3 356.6Z" fill="#f3b14e" stroke="#090808"></path><path d="M639 238.5L577.7 256.5L597.7 280.5Z" fill="#6b3f66" stroke="#090808"></path><path d="M639 238.5L601.7 191.4L577.7 256.5Z" fill="#ef9355" stroke="#090808"></path><path d="M465 143.3L425.7 179.4L497 189.4Z" fill="#e1795e" stroke="#090808"></path><path d="M497 189.4L425.7 179.4L493 250.5Z" fill="#6b3f66" stroke="#090808"></path><path d="M601.7 191.4L586.7 164.3L538.3 187.4Z" fill="#cc6467" stroke="#090808"></path><path d="M649 286.5L639 238.5L597.7 280.5Z" fill="#e1795e" stroke="#090808"></path><path d="M601.7 191.4L634 183.4L586.7 164.3Z" fill="#6b3f66" stroke="#090808"></path><path d="M548.3 158.3L465 143.3L497 189.4Z" fill="#00101c" stroke="#090808"></path><path d="M530.3 108.2L465 143.3L548.3 158.3Z" fill="#cc6467" stroke="#090808"></path><path d="M425.7 380.7L467 395.7L486 346.6Z" fill="#8e486c" stroke="#090808"></path><path d="M369.3 232.5L373.3 287.5L414.7 254.5Z" fill="#f3b14e" stroke="#090808"></path><path d="M414.7 254.5L373.3 287.5L433.7 281.5Z" fill="#ef9355" stroke="#090808"></path><path d="M596.7 330.6L649 286.5L597.7 280.5Z" fill="#2b2a47" stroke="#090808"></path><path d="M363.3 162.3L387.3 201.4L425.7 179.4Z" fill="#f3b14e" stroke="#090808"></path><path d="M425.7 179.4L387.3 201.4L414.7 254.5Z" fill="#ef9355" stroke="#090808"></path><path d="M411.7 332.6L425.7 380.7L486 346.6Z" fill="#f3b14e" stroke="#090808"></path><path d="M379.3 356.6L425.7 380.7L411.7 332.6Z" fill="#493559" stroke="#090808"></path><path d="M387.3 201.4L369.3 232.5L414.7 254.5Z" fill="#493559" stroke="#090808"></path><path d="M465 143.3L422.7 150.3L425.7 179.4Z" fill="#6b3f66" stroke="#090808"></path><path d="M580.7 402.7L627 358.6L596.7 330.6Z" fill="#2b2a47" stroke="#090808"></path><path d="M596.7 330.6L627 358.6L649 286.5Z" fill="#af546c" stroke="#090808"></path><path d="M580.7 402.7L596.7 330.6L532.3 375.7Z" fill="#cc6467" stroke="#090808"></path><path d="M646 163.3L634 183.4L684.3 181.4Z" fill="#ef9355" stroke="#090808"></path><path d="M639 238.5L634 183.4L601.7 191.4Z" fill="#ef9355" stroke="#090808"></path><path d="M520.3 457.8L580.7 402.7L532.3 375.7Z" fill="#493559" stroke="#090808"></path><path d="M373.3 287.5L379.3 356.6L411.7 332.6Z" fill="#ef9355" stroke="#090808"></path><path d="M430.7 434.8L491 426.8L467 395.7Z" fill="#af546c" stroke="#090808"></path><path d="M467 395.7L491 426.8L532.3 375.7Z" fill="#2b2a47" stroke="#090808"></path><path d="M430.7 434.8L467 395.7L425.7 380.7Z" fill="#f3b14e" stroke="#090808"></path><path d="M575.7 86.2L548.3 158.3L586.7 164.3Z" fill="#8e486c" stroke="#090808"></path><path d="M575.7 86.2L530.3 108.2L548.3 158.3Z" fill="#493559" stroke="#090808"></path><path d="M465 143.3L466 103.2L422.7 150.3Z" fill="#6b3f66" stroke="#090808"></path><path d="M530.3 108.2L466 103.2L465 143.3Z" fill="#2b2a47" stroke="#090808"></path><path d="M684.3 181.4L634 183.4L639 238.5Z" fill="#e1795e" stroke="#090808"></path><path d="M634 183.4L646 163.3L586.7 164.3Z" fill="#131e32" stroke="#090808"></path><path d="M580.7 402.7L648 384.7L627 358.6Z" fill="#8e486c" stroke="#090808"></path><path d="M627 358.6L693.3 351.6L649 286.5Z" fill="#cc6467" stroke="#090808"></path><path d="M646 458.8L648 384.7L580.7 402.7Z" fill="#131e32" stroke="#090808"></path><path d="M422.7 150.3L363.3 162.3L425.7 179.4Z" fill="#6b3f66" stroke="#090808"></path><path d="M387.3 201.4L335 208.4L369.3 232.5Z" fill="#2b2a47" stroke="#090808"></path><path d="M369.3 232.5L317 276.5L373.3 287.5Z" fill="#00101c" stroke="#090808"></path><path d="M390.3 107.2L363.3 162.3L422.7 150.3Z" fill="#ef9355" stroke="#090808"></path><path d="M361.3 395.7L430.7 434.8L425.7 380.7Z" fill="#ef9355" stroke="#090808"></path><path d="M363.3 162.3L335 208.4L387.3 201.4Z" fill="#6b3f66" stroke="#090808"></path><path d="M373.3 287.5L320 339.6L379.3 356.6Z" fill="#ef9355" stroke="#090808"></path><path d="M479 497.9L520.3 457.8L491 426.8Z" fill="#6b3f66" stroke="#090808"></path><path d="M491 426.8L520.3 457.8L532.3 375.7Z" fill="#e1795e" stroke="#090808"></path><path d="M707.3 279.5L701.3 258.5L649 286.5Z" fill="#131e32" stroke="#090808"></path><path d="M649 286.5L701.3 258.5L639 238.5Z" fill="#f3b14e" stroke="#090808"></path><path d="M636 115.2L575.7 86.2L586.7 164.3Z" fill="#2b2a47" stroke="#090808"></path><path d="M530.3 108.2L485 46.1L466 103.2Z" fill="#cc6467" stroke="#090808"></path><path d="M308 251.5L317 276.5L369.3 232.5Z" fill="#2b2a47" stroke="#090808"></path><path d="M379.3 356.6L361.3 395.7L425.7 380.7Z" fill="#493559" stroke="#090808"></path><path d="M701.3 258.5L684.3 181.4L639 238.5Z" fill="#af546c" stroke="#090808"></path><path d="M646 163.3L636 115.2L586.7 164.3Z" fill="#cc6467" stroke="#090808"></path><path d="M320 339.6L361.3 395.7L379.3 356.6Z" fill="#af546c" stroke="#090808"></path><path d="M693.3 351.6L707.3 279.5L649 286.5Z" fill="#8e486c" stroke="#090808"></path><path d="M737.7 130.3L680.3 140.3L684.3 181.4Z" fill="#2b2a47" stroke="#090808"></path><path d="M520.3 457.8L576.7 453.8L580.7 402.7Z" fill="#6b3f66" stroke="#090808"></path><path d="M680.3 140.3L636 115.2L646 163.3Z" fill="#8e486c" stroke="#090808"></path><path d="M703.3 400.7L693.3 351.6L648 384.7Z" fill="#131e32" stroke="#090808"></path><path d="M648 384.7L693.3 351.6L627 358.6Z" fill="#131e32" stroke="#090808"></path><path d="M411.7 81.2L422.7 150.3L466 103.2Z" fill="#f3b14e" stroke="#090808"></path><path d="M411.7 81.2L390.3 107.2L422.7 150.3Z" fill="#8e486c" stroke="#090808"></path><path d="M363.3 162.3L309 141.3L335 208.4Z" fill="#cc6467" stroke="#090808"></path><path d="M277.7 203.4L308 251.5L335 208.4Z" fill="#6b3f66" stroke="#090808"></path><path d="M335 208.4L308 251.5L369.3 232.5Z" fill="#ef9355" stroke="#090808"></path><path d="M317 276.5L320 339.6L373.3 287.5Z" fill="#f3b14e" stroke="#090808"></path><path d="M279.7 342.6L320 339.6L317 276.5Z" fill="#ef9355" stroke="#090808"></path><path d="M479 497.9L528.3 477.9L520.3 457.8Z" fill="#cc6467" stroke="#090808"></path><path d="M520.3 457.8L528.3 477.9L576.7 453.8Z" fill="#493559" stroke="#090808"></path><path d="M435.7 36.1L411.7 81.2L466 103.2Z" fill="#493559" stroke="#090808"></path><path d="M597.7 50.1L542.3 58.1L575.7 86.2Z" fill="#8e486c" stroke="#090808"></path><path d="M575.7 86.2L542.3 58.1L530.3 108.2Z" fill="#2b2a47" stroke="#090808"></path><path d="M729.7 192.4L684.3 181.4L701.3 258.5Z" fill="#af546c" stroke="#090808"></path><path d="M684.3 181.4L680.3 140.3L646 163.3Z" fill="#2b2a47" stroke="#090808"></path><path d="M636 115.2L597.7 50.1L575.7 86.2Z" fill="#2b2a47" stroke="#090808"></path><path d="M542.3 58.1L485 46.1L530.3 108.2Z" fill="#cc6467" stroke="#090808"></path><path d="M361.3 395.7L364.3 443.8L430.7 434.8Z" fill="#00101c" stroke="#090808"></path><path d="M430.7 434.8L479 497.9L491 426.8Z" fill="#2b2a47" stroke="#090808"></path><path d="M336 428.8L364.3 443.8L361.3 395.7Z" fill="#131e32" stroke="#090808"></path><path d="M763.7 228.5L729.7 192.4L701.3 258.5Z" fill="#131e32" stroke="#090808"></path><path d="M763.7 228.5L701.3 258.5L707.3 279.5Z" fill="#131e32" stroke="#090808"></path><path d="M528.3 477.9L592.7 484.9L576.7 453.8Z" fill="#e1795e" stroke="#090808"></path><path d="M576.7 453.8L646 458.8L580.7 402.7Z" fill="#131e32" stroke="#090808"></path><path d="M415.7 501.9L479 497.9L430.7 434.8Z" fill="#131e32" stroke="#090808"></path><path d="M528.3 477.9L533.3 540L592.7 484.9Z" fill="#131e32" stroke="#090808"></path><path d="M592.7 484.9L646 458.8L576.7 453.8Z" fill="#af546c" stroke="#090808"></path><path d="M682.3 428.8L703.3 400.7L648 384.7Z" fill="#e1795e" stroke="#090808"></path><path d="M693.3 351.6L751.7 306.5L707.3 279.5Z" fill="#ef9355" stroke="#090808"></path><path d="M702.3 91.2L636 115.2L680.3 140.3Z" fill="#e1795e" stroke="#090808"></path><path d="M636 34.1L597.7 50.1L636 115.2Z" fill="#00101c" stroke="#090808"></path><path d="M548.3 0L487 0L485 46.1Z" fill="#ef9355" stroke="#090808"></path><path d="M646 458.8L682.3 428.8L648 384.7Z" fill="#e1795e" stroke="#090808"></path><path d="M279.7 342.6L315 401.7L320 339.6Z" fill="#ef9355" stroke="#090808"></path><path d="M320 339.6L315 401.7L361.3 395.7Z" fill="#493559" stroke="#090808"></path><path d="M315 401.7L336 428.8L361.3 395.7Z" fill="#e1795e" stroke="#090808"></path><path d="M335 98.2L363.3 162.3L390.3 107.2Z" fill="#8e486c" stroke="#090808"></path><path d="M335 98.2L309 141.3L363.3 162.3Z" fill="#00101c" stroke="#090808"></path><path d="M309 141.3L277.7 203.4L335 208.4Z" fill="#8e486c" stroke="#090808"></path><path d="M250.7 308.5L279.7 342.6L317 276.5Z" fill="#f3b14e" stroke="#090808"></path><path d="M250.7 308.5L317 276.5L308 251.5Z" fill="#e1795e" stroke="#090808"></path><path d="M487 0L435.7 36.1L485 46.1Z" fill="#2b2a47" stroke="#090808"></path><path d="M485 46.1L435.7 36.1L466 103.2Z" fill="#131e32" stroke="#090808"></path><path d="M364.3 35.1L335 98.2L390.3 107.2Z" fill="#00101c" stroke="#090808"></path><path d="M762.7 359.6L751.7 306.5L693.3 351.6Z" fill="#f3b14e" stroke="#090808"></path><path d="M364.3 35.1L390.3 107.2L411.7 81.2Z" fill="#6b3f66" stroke="#090808"></path><path d="M592.7 484.9L633 483.9L646 458.8Z" fill="#af546c" stroke="#090808"></path><path d="M646 458.8L683.3 478.9L682.3 428.8Z" fill="#e1795e" stroke="#090808"></path><path d="M593.7 540L633 483.9L592.7 484.9Z" fill="#af546c" stroke="#090808"></path><path d="M358.3 499.9L415.7 501.9L364.3 443.8Z" fill="#af546c" stroke="#090808"></path><path d="M364.3 443.8L415.7 501.9L430.7 434.8Z" fill="#cc6467" stroke="#090808"></path><path d="M751.7 306.5L763.7 228.5L707.3 279.5Z" fill="#e1795e" stroke="#090808"></path><path d="M737.7 130.3L702.3 91.2L680.3 140.3Z" fill="#f3b14e" stroke="#090808"></path><path d="M250.7 160.3L256.7 227.5L277.7 203.4Z" fill="#e1795e" stroke="#090808"></path><path d="M277.7 203.4L256.7 227.5L308 251.5Z" fill="#cc6467" stroke="#090808"></path><path d="M250.7 160.3L277.7 203.4L309 141.3Z" fill="#f3b14e" stroke="#090808"></path><path d="M737.7 130.3L684.3 181.4L729.7 192.4Z" fill="#131e32" stroke="#090808"></path><path d="M735.7 443.8L741.7 389.7L703.3 400.7Z" fill="#2b2a47" stroke="#090808"></path><path d="M703.3 400.7L741.7 389.7L693.3 351.6Z" fill="#493559" stroke="#090808"></path><path d="M751.7 306.5L784 285.5L763.7 228.5Z" fill="#493559" stroke="#090808"></path><path d="M735.7 443.8L703.3 400.7L682.3 428.8Z" fill="#e1795e" stroke="#090808"></path><path d="M256.7 227.5L250.7 308.5L308 251.5Z" fill="#6b3f66" stroke="#090808"></path><path d="M279.7 342.6L258.7 380.7L315 401.7Z" fill="#cc6467" stroke="#090808"></path><path d="M702.3 91.2L636 34.1L636 115.2Z" fill="#493559" stroke="#090808"></path><path d="M548.3 0L485 46.1L542.3 58.1Z" fill="#131e32" stroke="#090808"></path><path d="M799 200.4L737.7 130.3L729.7 192.4Z" fill="#131e32" stroke="#090808"></path><path d="M741.7 389.7L762.7 359.6L693.3 351.6Z" fill="#e1795e" stroke="#090808"></path><path d="M548.3 0L542.3 58.1L597.7 50.1Z" fill="#af546c" stroke="#090808"></path><path d="M435.7 36.1L364.3 35.1L411.7 81.2Z" fill="#ef9355" stroke="#090808"></path><path d="M593.7 0L548.3 0L597.7 50.1Z" fill="#f3b14e" stroke="#090808"></path><path d="M633 483.9L683.3 478.9L646 458.8Z" fill="#af546c" stroke="#090808"></path><path d="M785 383.7L785 330.6L762.7 359.6Z" fill="#f3b14e" stroke="#090808"></path><path d="M477 540L533.3 540L479 497.9Z" fill="#131e32" stroke="#090808"></path><path d="M479 497.9L533.3 540L528.3 477.9Z" fill="#8e486c" stroke="#090808"></path><path d="M633 483.9L679.3 540L683.3 478.9Z" fill="#8e486c" stroke="#090808"></path><path d="M785 330.6L784 285.5L751.7 306.5Z" fill="#f3b14e" stroke="#090808"></path><path d="M805 83.2L730.7 83.2L737.7 130.3Z" fill="#e1795e" stroke="#090808"></path><path d="M415.7 501.9L477 540L479 497.9Z" fill="#2b2a47" stroke="#090808"></path><path d="M376.3 0L364.3 35.1L435.7 36.1Z" fill="#00101c" stroke="#090808"></path><path d="M258.7 98.2L250.7 160.3L309 141.3Z" fill="#00101c" stroke="#090808"></path><path d="M268.7 435.8L327 478.9L336 428.8Z" fill="#6b3f66" stroke="#090808"></path><path d="M327 478.9L358.3 499.9L364.3 443.8Z" fill="#2b2a47" stroke="#090808"></path><path d="M218.3 342.6L258.7 380.7L279.7 342.6Z" fill="#6b3f66" stroke="#090808"></path><path d="M327 478.9L364.3 443.8L336 428.8Z" fill="#8e486c" stroke="#090808"></path><path d="M415.7 501.9L409.7 540L477 540Z" fill="#00101c" stroke="#090808"></path><path d="M487 0L430.7 0L435.7 36.1Z" fill="#493559" stroke="#090808"></path><path d="M268.7 435.8L336 428.8L315 401.7Z" fill="#af546c" stroke="#090808"></path><path d="M636 34.1L593.7 0L597.7 50.1Z" fill="#af546c" stroke="#090808"></path><path d="M762.7 359.6L785 330.6L751.7 306.5Z" fill="#131e32" stroke="#090808"></path><path d="M785 383.7L762.7 359.6L741.7 389.7Z" fill="#6b3f66" stroke="#090808"></path><path d="M258.7 98.2L309 141.3L335 98.2Z" fill="#ef9355" stroke="#090808"></path><path d="M256.7 227.5L220.3 250.5L250.7 308.5Z" fill="#ef9355" stroke="#090808"></path><path d="M533.3 540L593.7 540L592.7 484.9Z" fill="#af546c" stroke="#090808"></path><path d="M754.7 499.9L735.7 443.8L683.3 478.9Z" fill="#8e486c" stroke="#090808"></path><path d="M683.3 478.9L735.7 443.8L682.3 428.8Z" fill="#af546c" stroke="#090808"></path><path d="M799 200.4L729.7 192.4L763.7 228.5Z" fill="#493559" stroke="#090808"></path><path d="M737.7 130.3L730.7 83.2L702.3 91.2Z" fill="#6b3f66" stroke="#090808"></path><path d="M702.3 91.2L684.3 35.1L636 34.1Z" fill="#8e486c" stroke="#090808"></path><path d="M636 34.1L635 0L593.7 0Z" fill="#cc6467" stroke="#090808"></path><path d="M375.3 540L415.7 501.9L358.3 499.9Z" fill="#493559" stroke="#090808"></path><path d="M375.3 540L409.7 540L415.7 501.9Z" fill="#e1795e" stroke="#090808"></path><path d="M730.7 83.2L684.3 35.1L702.3 91.2Z" fill="#ef9355" stroke="#090808"></path><path d="M204.3 182.4L220.3 250.5L256.7 227.5Z" fill="#ef9355" stroke="#090808"></path><path d="M250.7 308.5L218.3 342.6L279.7 342.6Z" fill="#e1795e" stroke="#090808"></path><path d="M840.3 280.5L801 235.5L784 285.5Z" fill="#ef9355" stroke="#090808"></path><path d="M784 285.5L801 235.5L763.7 228.5Z" fill="#e1795e" stroke="#090808"></path><path d="M223.3 401.7L268.7 435.8L258.7 380.7Z" fill="#2b2a47" stroke="#090808"></path><path d="M258.7 380.7L268.7 435.8L315 401.7Z" fill="#00101c" stroke="#090808"></path><path d="M322 540L375.3 540L358.3 499.9Z" fill="#cc6467" stroke="#090808"></path><path d="M684.3 35.1L635 0L636 34.1Z" fill="#e1795e" stroke="#090808"></path><path d="M801 235.5L799 200.4L763.7 228.5Z" fill="#af546c" stroke="#090808"></path><path d="M735.7 443.8L785 383.7L741.7 389.7Z" fill="#8e486c" stroke="#090808"></path><path d="M785 330.6L840.3 280.5L784 285.5Z" fill="#e1795e" stroke="#090808"></path><path d="M593.7 540L635 540L633 483.9Z" fill="#cc6467" stroke="#090808"></path><path d="M430.7 0L376.3 0L435.7 36.1Z" fill="#00101c" stroke="#090808"></path><path d="M271.7 48.1L258.7 98.2L335 98.2Z" fill="#cc6467" stroke="#090808"></path><path d="M202.3 282.5L218.3 342.6L250.7 308.5Z" fill="#00101c" stroke="#090808"></path><path d="M322 540L358.3 499.9L327 478.9Z" fill="#e1795e" stroke="#090808"></path><path d="M311 37.1L335 98.2L364.3 35.1Z" fill="#af546c" stroke="#090808"></path><path d="M176 241.5L202.3 282.5L220.3 250.5Z" fill="#131e32" stroke="#090808"></path><path d="M326 0L311 37.1L364.3 35.1Z" fill="#2b2a47" stroke="#090808"></path><path d="M220.3 250.5L202.3 282.5L250.7 308.5Z" fill="#e1795e" stroke="#090808"></path><path d="M204.3 182.4L256.7 227.5L250.7 160.3Z" fill="#f3b14e" stroke="#090808"></path><path d="M218.3 342.6L223.3 401.7L258.7 380.7Z" fill="#e1795e" stroke="#090808"></path><path d="M268.7 501.9L322 540L327 478.9Z" fill="#af546c" stroke="#090808"></path><path d="M202.3 449.8L223.3 401.7L151 392.7Z" fill="#131e32" stroke="#090808"></path><path d="M203.3 159.3L204.3 182.4L250.7 160.3Z" fill="#00101c" stroke="#090808"></path><path d="M635 540L679.3 540L633 483.9Z" fill="#00101c" stroke="#090808"></path><path d="M735.7 443.8L814 447.8L785 383.7Z" fill="#6b3f66" stroke="#090808"></path><path d="M311 37.1L271.7 48.1L335 98.2Z" fill="#af546c" stroke="#090808"></path><path d="M218.3 109.2L203.3 159.3L250.7 160.3Z" fill="#af546c" stroke="#090808"></path><path d="M265.7 0L271.7 48.1L311 37.1Z" fill="#f3b14e" stroke="#090808"></path><path d="M376.3 0L326 0L364.3 35.1Z" fill="#e1795e" stroke="#090808"></path><path d="M799 200.4L808 134.3L737.7 130.3Z" fill="#e1795e" stroke="#090808"></path><path d="M730.7 83.2L747.7 34.1L684.3 35.1Z" fill="#493559" stroke="#090808"></path><path d="M839.3 178.4L808 134.3L799 200.4Z" fill="#00101c" stroke="#090808"></path><path d="M218.3 109.2L250.7 160.3L258.7 98.2Z" fill="#cc6467" stroke="#090808"></path><path d="M204.3 182.4L176 241.5L220.3 250.5Z" fill="#131e32" stroke="#090808"></path><path d="M867.3 351.6L840.3 280.5L785 330.6Z" fill="#ef9355" stroke="#090808"></path><path d="M801 235.5L841.3 248.5L799 200.4Z" fill="#131e32" stroke="#090808"></path><path d="M268.7 501.9L327 478.9L268.7 435.8Z" fill="#00101c" stroke="#090808"></path><path d="M840.3 280.5L841.3 248.5L801 235.5Z" fill="#131e32" stroke="#090808"></path><path d="M201.3 44.1L218.3 109.2L258.7 98.2Z" fill="#493559" stroke="#090808"></path><path d="M789 54.1L747.7 34.1L730.7 83.2Z" fill="#6b3f66" stroke="#090808"></path><path d="M684.3 35.1L708.3 0L635 0Z" fill="#f3b14e" stroke="#090808"></path><path d="M747.7 34.1L708.3 0L684.3 35.1Z" fill="#e1795e" stroke="#090808"></path><path d="M168 201.4L204.3 182.4L160 150.3Z" fill="#ef9355" stroke="#090808"></path><path d="M168 201.4L176 241.5L204.3 182.4Z" fill="#ef9355" stroke="#090808"></path><path d="M202.3 282.5L151 325.6L218.3 342.6Z" fill="#f3b14e" stroke="#090808"></path><path d="M741.7 540L754.7 499.9L683.3 478.9Z" fill="#ef9355" stroke="#090808"></path><path d="M785 383.7L851.3 377.7L785 330.6Z" fill="#e1795e" stroke="#090808"></path><path d="M202.3 449.8L268.7 501.9L268.7 435.8Z" fill="#8e486c" stroke="#090808"></path><path d="M841.3 248.5L839.3 178.4L799 200.4Z" fill="#cc6467" stroke="#090808"></path><path d="M808 134.3L805 83.2L737.7 130.3Z" fill="#ef9355" stroke="#090808"></path><path d="M858.3 94.2L805 83.2L808 134.3Z" fill="#00101c" stroke="#090808"></path><path d="M747.7 34.1L763.7 0L708.3 0Z" fill="#8e486c" stroke="#090808"></path><path d="M160 150.3L204.3 182.4L203.3 159.3Z" fill="#ef9355" stroke="#090808"></path><path d="M112.7 284.5L160 278.5L96.7 260.5Z" fill="#131e32" stroke="#090808"></path><path d="M176 241.5L160 278.5L202.3 282.5Z" fill="#e1795e" stroke="#090808"></path><path d="M223.3 401.7L202.3 449.8L268.7 435.8Z" fill="#ef9355" stroke="#090808"></path><path d="M805 83.2L789 54.1L730.7 83.2Z" fill="#00101c" stroke="#090808"></path><path d="M797 479.9L814 447.8L735.7 443.8Z" fill="#af546c" stroke="#090808"></path><path d="M789 540L797 479.9L754.7 499.9Z" fill="#ef9355" stroke="#090808"></path><path d="M754.7 499.9L797 479.9L735.7 443.8Z" fill="#af546c" stroke="#090808"></path><path d="M679.3 540L741.7 540L683.3 478.9Z" fill="#493559" stroke="#090808"></path><path d="M814 447.8L851.3 377.7L785 383.7Z" fill="#6b3f66" stroke="#090808"></path><path d="M840.3 280.5L891.7 255.5L841.3 248.5Z" fill="#8e486c" stroke="#090808"></path><path d="M921.7 199.4L865.3 159.3L839.3 178.4Z" fill="#cc6467" stroke="#090808"></path><path d="M867.3 351.6L851.3 377.7L905.7 395.7Z" fill="#8e486c" stroke="#090808"></path><path d="M151 392.7L223.3 401.7L218.3 342.6Z" fill="#131e32" stroke="#090808"></path><path d="M326 0L265.7 0L311 37.1Z" fill="#e1795e" stroke="#090808"></path><path d="M271.7 48.1L201.3 44.1L258.7 98.2Z" fill="#ef9355" stroke="#090808"></path><path d="M218.3 109.2L160 150.3L203.3 159.3Z" fill="#e1795e" stroke="#090808"></path><path d="M112.7 284.5L151 325.6L160 278.5Z" fill="#131e32" stroke="#090808"></path><path d="M160 278.5L151 325.6L202.3 282.5Z" fill="#131e32" stroke="#090808"></path><path d="M867.3 428.8L851.3 377.7L814 447.8Z" fill="#2b2a47" stroke="#090808"></path><path d="M851.3 377.7L867.3 351.6L785 330.6Z" fill="#8e486c" stroke="#090808"></path><path d="M789 54.1L763.7 0L747.7 34.1Z" fill="#cc6467" stroke="#090808"></path><path d="M814 0L763.7 0L789 54.1Z" fill="#131e32" stroke="#090808"></path><path d="M156 95.2L160 150.3L218.3 109.2Z" fill="#f3b14e" stroke="#090808"></path><path d="M96.7 260.5L160 278.5L176 241.5Z" fill="#ef9355" stroke="#090808"></path><path d="M268.7 501.9L258.7 540L322 540Z" fill="#cc6467" stroke="#090808"></path><path d="M207.3 540L258.7 540L268.7 501.9Z" fill="#af546c" stroke="#090808"></path><path d="M891.7 255.5L839.3 178.4L841.3 248.5Z" fill="#ef9355" stroke="#090808"></path><path d="M839.3 178.4L865.3 159.3L808 134.3Z" fill="#00101c" stroke="#090808"></path><path d="M805 83.2L850.3 56.1L789 54.1Z" fill="#af546c" stroke="#090808"></path><path d="M151 325.6L151 392.7L218.3 342.6Z" fill="#6b3f66" stroke="#090808"></path><path d="M202.3 449.8L196.3 492.9L268.7 501.9Z" fill="#cc6467" stroke="#090808"></path><path d="M922.7 300.5L891.7 255.5L840.3 280.5Z" fill="#af546c" stroke="#090808"></path><path d="M218.3 0L201.3 44.1L271.7 48.1Z" fill="#f3b14e" stroke="#090808"></path><path d="M165 457.8L196.3 492.9L202.3 449.8Z" fill="#f3b14e" stroke="#090808"></path><path d="M917.7 141.3L858.3 94.2L865.3 159.3Z" fill="#2b2a47" stroke="#090808"></path><path d="M865.3 159.3L858.3 94.2L808 134.3Z" fill="#6b3f66" stroke="#090808"></path><path d="M741.7 540L789 540L754.7 499.9Z" fill="#131e32" stroke="#090808"></path><path d="M861.3 506.9L867.3 428.8L814 447.8Z" fill="#cc6467" stroke="#090808"></path><path d="M861.3 506.9L814 447.8L797 479.9Z" fill="#00101c" stroke="#090808"></path><path d="M867.3 351.6L922.7 300.5L840.3 280.5Z" fill="#af546c" stroke="#090808"></path><path d="M151 392.7L165 457.8L202.3 449.8Z" fill="#ef9355" stroke="#090808"></path><path d="M173 48.1L156 95.2L218.3 109.2Z" fill="#af546c" stroke="#090808"></path><path d="M112.7 202.4L176 241.5L168 201.4Z" fill="#00101c" stroke="#090808"></path><path d="M265.7 0L218.3 0L271.7 48.1Z" fill="#ef9355" stroke="#090808"></path><path d="M201.3 44.1L173 48.1L218.3 109.2Z" fill="#2b2a47" stroke="#090808"></path><path d="M112.7 202.4L168 201.4L160 150.3Z" fill="#af546c" stroke="#090808"></path><path d="M151 325.6L97.7 349.6L151 392.7Z" fill="#af546c" stroke="#090808"></path><path d="M151 392.7L107.7 425.8L165 457.8Z" fill="#00101c" stroke="#090808"></path><path d="M858.3 94.2L850.3 56.1L805 83.2Z" fill="#ef9355" stroke="#090808"></path><path d="M156 0L173 48.1L201.3 44.1Z" fill="#8e486c" stroke="#090808"></path><path d="M98.7 161.3L160 150.3L156 95.2Z" fill="#cc6467" stroke="#090808"></path><path d="M98.7 161.3L112.7 202.4L160 150.3Z" fill="#af546c" stroke="#090808"></path><path d="M850.3 56.1L814 0L789 54.1Z" fill="#cc6467" stroke="#090808"></path><path d="M173 540L207.3 540L196.3 492.9Z" fill="#af546c" stroke="#090808"></path><path d="M196.3 492.9L207.3 540L268.7 501.9Z" fill="#f3b14e" stroke="#090808"></path><path d="M919.7 336.6L922.7 300.5L867.3 351.6Z" fill="#e1795e" stroke="#090808"></path><path d="M891.7 255.5L921.7 199.4L839.3 178.4Z" fill="#ef9355" stroke="#090808"></path><path d="M858.3 94.2L893.7 57.1L850.3 56.1Z" fill="#f3b14e" stroke="#090808"></path><path d="M112.7 202.4L96.7 260.5L176 241.5Z" fill="#2b2a47" stroke="#090808"></path><path d="M112.7 284.5L97.7 349.6L151 325.6Z" fill="#6b3f66" stroke="#090808"></path><path d="M905.7 395.7L919.7 336.6L867.3 351.6Z" fill="#2b2a47" stroke="#090808"></path><path d="M867.3 428.8L905.7 395.7L851.3 377.7Z" fill="#8e486c" stroke="#090808"></path><path d="M908.7 423.8L905.7 395.7L867.3 428.8Z" fill="#f3b14e" stroke="#090808"></path><path d="M960 230.5L921.7 199.4L891.7 255.5Z" fill="#cc6467" stroke="#090808"></path><path d="M67.3 331.6L97.7 349.6L112.7 284.5Z" fill="#2b2a47" stroke="#090808"></path><path d="M165 457.8L152 507.9L196.3 492.9Z" fill="#2b2a47" stroke="#090808"></path><path d="M97.7 349.6L109.7 398.7L151 392.7Z" fill="#493559" stroke="#090808"></path><path d="M789 540L861.3 506.9L797 479.9Z" fill="#2b2a47" stroke="#090808"></path><path d="M112.7 202.4L44.3 248.5L96.7 260.5Z" fill="#493559" stroke="#090808"></path><path d="M96.7 80.2L98.7 161.3L156 95.2Z" fill="#af546c" stroke="#090808"></path><path d="M921.7 199.4L917.7 141.3L865.3 159.3Z" fill="#6b3f66" stroke="#090808"></path><path d="M850.3 56.1L844.3 0L814 0Z" fill="#cc6467" stroke="#090808"></path><path d="M909.7 503.9L908.7 423.8L867.3 428.8Z" fill="#f3b14e" stroke="#090808"></path><path d="M960 328.6L922.7 300.5L919.7 336.6Z" fill="#cc6467" stroke="#090808"></path><path d="M893.7 57.1L844.3 0L850.3 56.1Z" fill="#af546c" stroke="#090808"></path><path d="M120.7 490.9L152 507.9L165 457.8Z" fill="#8e486c" stroke="#090808"></path><path d="M109.7 398.7L107.7 425.8L151 392.7Z" fill="#cc6467" stroke="#090808"></path><path d="M70.3 374.7L107.7 425.8L109.7 398.7Z" fill="#131e32" stroke="#090808"></path><path d="M152 507.9L173 540L196.3 492.9Z" fill="#ef9355" stroke="#090808"></path><path d="M913.7 81.2L893.7 57.1L858.3 94.2Z" fill="#ef9355" stroke="#090808"></path><path d="M917.7 141.3L913.7 81.2L858.3 94.2Z" fill="#131e32" stroke="#090808"></path><path d="M960 106.2L913.7 81.2L917.7 141.3Z" fill="#131e32" stroke="#090808"></path><path d="M218.3 0L156 0L201.3 44.1Z" fill="#cc6467" stroke="#090808"></path><path d="M173 48.1L96.7 80.2L156 95.2Z" fill="#6b3f66" stroke="#090808"></path><path d="M789 540L864.3 540L861.3 506.9Z" fill="#6b3f66" stroke="#090808"></path><path d="M861.3 506.9L909.7 503.9L867.3 428.8Z" fill="#cc6467" stroke="#090808"></path><path d="M37.3 291.5L67.3 331.6L112.7 284.5Z" fill="#ef9355" stroke="#090808"></path><path d="M97.7 349.6L70.3 374.7L109.7 398.7Z" fill="#00101c" stroke="#090808"></path><path d="M37.3 291.5L112.7 284.5L96.7 260.5Z" fill="#493559" stroke="#090808"></path><path d="M107.7 425.8L120.7 490.9L165 457.8Z" fill="#493559" stroke="#090808"></path><path d="M152 507.9L114.7 540L173 540Z" fill="#ef9355" stroke="#090808"></path><path d="M61.3 486.9L120.7 490.9L107.7 425.8Z" fill="#131e32" stroke="#090808"></path><path d="M960 328.6L960 301.5L922.7 300.5Z" fill="#cc6467" stroke="#090808"></path><path d="M922.7 300.5L960 230.5L891.7 255.5Z" fill="#493559" stroke="#090808"></path><path d="M921.7 199.4L960 164.3L917.7 141.3Z" fill="#cc6467" stroke="#090808"></path><path d="M960 328.6L919.7 336.6L960 390.7Z" fill="#493559" stroke="#090808"></path><path d="M919.7 336.6L905.7 395.7L960 390.7Z" fill="#00101c" stroke="#090808"></path><path d="M960 301.5L960 230.5L922.7 300.5Z" fill="#ef9355" stroke="#090808"></path><path d="M67.3 331.6L70.3 374.7L97.7 349.6Z" fill="#8e486c" stroke="#090808"></path><path d="M960 390.7L905.7 395.7L908.7 423.8Z" fill="#e1795e" stroke="#090808"></path><path d="M98.7 37.1L96.7 80.2L173 48.1Z" fill="#ef9355" stroke="#090808"></path><path d="M98.7 161.3L58.3 181.4L112.7 202.4Z" fill="#8e486c" stroke="#090808"></path><path d="M960 230.5L960 195.4L921.7 199.4Z" fill="#af546c" stroke="#090808"></path><path d="M96.7 80.2L68.3 141.3L98.7 161.3Z" fill="#493559" stroke="#090808"></path><path d="M68.3 141.3L58.3 181.4L98.7 161.3Z" fill="#8e486c" stroke="#090808"></path><path d="M960 195.4L960 164.3L921.7 199.4Z" fill="#e1795e" stroke="#090808"></path><path d="M900.7 540L909.7 503.9L861.3 506.9Z" fill="#8e486c" stroke="#090808"></path><path d="M960 432.8L960 390.7L908.7 423.8Z" fill="#e1795e" stroke="#090808"></path><path d="M58.3 181.4L44.3 248.5L112.7 202.4Z" fill="#00101c" stroke="#090808"></path><path d="M67.3 331.6L0 338.6L70.3 374.7Z" fill="#ef9355" stroke="#090808"></path><path d="M156 0L123.7 0L173 48.1Z" fill="#131e32" stroke="#090808"></path><path d="M96.7 80.2L45.3 102.2L68.3 141.3Z" fill="#cc6467" stroke="#090808"></path><path d="M123.7 0L98.7 37.1L173 48.1Z" fill="#493559" stroke="#090808"></path><path d="M44.3 248.5L37.3 291.5L96.7 260.5Z" fill="#f3b14e" stroke="#090808"></path><path d="M864.3 540L900.7 540L861.3 506.9Z" fill="#af546c" stroke="#090808"></path><path d="M960 491.9L960 432.8L908.7 423.8Z" fill="#00101c" stroke="#090808"></path><path d="M960 164.3L960 106.2L917.7 141.3Z" fill="#6b3f66" stroke="#090808"></path><path d="M960 40.1L917.7 0L893.7 57.1Z" fill="#493559" stroke="#090808"></path><path d="M893.7 57.1L917.7 0L844.3 0Z" fill="#8e486c" stroke="#090808"></path><path d="M960 491.9L908.7 423.8L909.7 503.9Z" fill="#8e486c" stroke="#090808"></path><path d="M61.3 486.9L114.7 540L120.7 490.9Z" fill="#131e32" stroke="#090808"></path><path d="M120.7 490.9L114.7 540L152 507.9Z" fill="#af546c" stroke="#090808"></path><path d="M40.3 428.8L107.7 425.8L70.3 374.7Z" fill="#8e486c" stroke="#090808"></path><path d="M960 40.1L893.7 57.1L913.7 81.2Z" fill="#8e486c" stroke="#090808"></path><path d="M59.3 31.1L96.7 80.2L98.7 37.1Z" fill="#ef9355" stroke="#090808"></path><path d="M59.3 31.1L45.3 102.2L96.7 80.2Z" fill="#6b3f66" stroke="#090808"></path><path d="M0 131.3L0 201.4L58.3 181.4Z" fill="#af546c" stroke="#090808"></path><path d="M0 227.5L0 296.5L44.3 248.5Z" fill="#6b3f66" stroke="#090808"></path><path d="M44.3 248.5L0 296.5L37.3 291.5Z" fill="#e1795e" stroke="#090808"></path><path d="M0 388.7L40.3 428.8L70.3 374.7Z" fill="#f3b14e" stroke="#090808"></path><path d="M40.3 428.8L61.3 486.9L107.7 425.8Z" fill="#6b3f66" stroke="#090808"></path><path d="M960 540L960 491.9L909.7 503.9Z" fill="#8e486c" stroke="#090808"></path><path d="M960 106.2L960 40.1L913.7 81.2Z" fill="#cc6467" stroke="#090808"></path><path d="M52.3 0L59.3 31.1L98.7 37.1Z" fill="#2b2a47" stroke="#090808"></path><path d="M0 227.5L44.3 248.5L0 201.4Z" fill="#ef9355" stroke="#090808"></path><path d="M37.3 291.5L0 338.6L67.3 331.6Z" fill="#af546c" stroke="#090808"></path><path d="M44.3 248.5L58.3 181.4L0 201.4Z" fill="#2b2a47" stroke="#090808"></path><path d="M58.3 181.4L68.3 141.3L0 131.3Z" fill="#af546c" stroke="#090808"></path><path d="M0 131.3L68.3 141.3L45.3 102.2Z" fill="#493559" stroke="#090808"></path><path d="M0 296.5L0 338.6L37.3 291.5Z" fill="#493559" stroke="#090808"></path><path d="M40.3 428.8L0 491.9L61.3 486.9Z" fill="#6b3f66" stroke="#090808"></path><path d="M960 40.1L960 0L917.7 0Z" fill="#e1795e" stroke="#090808"></path><path d="M0 338.6L0 388.7L70.3 374.7Z" fill="#2b2a47" stroke="#090808"></path><path d="M900.7 540L960 540L909.7 503.9Z" fill="#131e32" stroke="#090808"></path><path d="M0 87.2L0 131.3L45.3 102.2Z" fill="#2b2a47" stroke="#090808"></path><path d="M123.7 0L52.3 0L98.7 37.1Z" fill="#8e486c" stroke="#090808"></path><path d="M0 41.1L0 87.2L45.3 102.2Z" fill="#131e32" stroke="#090808"></path><path d="M0 388.7L0 431.8L40.3 428.8Z" fill="#493559" stroke="#090808"></path><path d="M61.3 486.9L38.3 540L114.7 540Z" fill="#8e486c" stroke="#090808"></path><path d="M0 41.1L45.3 102.2L59.3 31.1Z" fill="#8e486c" stroke="#090808"></path><path d="M0 491.9L38.3 540L61.3 486.9Z" fill="#8e486c" stroke="#090808"></path><path d="M0 431.8L0 491.9L40.3 428.8Z" fill="#6b3f66" stroke="#090808"></path><path d="M52.3 0L0 41.1L59.3 31.1Z" fill="#493559" stroke="#090808"></path><path d="M52.3 0L0 0L0 41.1Z" fill="#00101c" stroke="#090808"></path><path d="M0 491.9L0 540L38.3 540Z" fill="#2b2a47" stroke="#090808"></path></g></svg>